<?xml version="1.0" encoding="UTF-8"?>
<svg version="1.1" xmlns="http://www.w3.org/2000/svg" width="396" height="285">
<path d="M0 0 C130.68 0 261.36 0 396 0 C396 94.05 396 188.1 396 285 C265.32 285 134.64 285 0 285 C0 190.95 0 96.9 0 0 Z " fill="#FDFDFE" transform="translate(0,0)"/>
<path d="M0 0 C3.0625 0.375 3.0625 0.375 4.71937561 2.03453064 C6.37431637 4.91835747 6.50370036 6.88084457 6.61499023 10.19750977 C6.66191513 11.36874893 6.70884003 12.5399881 6.75718689 13.74671936 C6.79477615 15.00721603 6.83236542 16.26771271 6.87109375 17.56640625 C6.95184157 19.5474855 7.03261103 21.52856416 7.11467838 23.5095892 C7.31205685 28.39258149 7.47756413 33.27675496 7.64379883 38.16088867 C7.73819869 40.90431107 7.84287006 43.64700446 7.95802307 46.38963318 C8.06531241 48.97318093 8.15605456 51.55747798 8.22886658 54.14222717 C8.30398216 55.89435768 8.30398216 55.89435768 8.38061523 57.68188477 C8.41597885 58.71128677 8.45134247 59.74068878 8.48777771 60.80128479 C8.83852595 63.50454373 8.83852595 63.50454373 10.99110413 65.18907166 C15.16005209 67.57590346 19.11577683 67.58953116 23.875 67.6875 C25.05707031 67.72488281 26.23914063 67.76226562 27.45703125 67.80078125 C31.76904199 67.29156221 35.13010111 66.67464058 38.0625 63.375 C39.23842675 58.94639874 39.22541759 54.52806583 39.296875 49.96484375 C39.37259913 47.9498697 39.44833685 45.93489604 39.5248909 43.91995335 C39.6235982 41.1009026 39.69122806 38.28142566 39.75897217 35.46148682 C39.88200351 30.52213601 40.04350245 25.58405218 40.22076416 20.64637756 C40.31197414 18.01818661 40.38708295 15.38937918 40.44476318 12.76023865 C40.482005 11.57213089 40.51924683 10.38402313 40.55761719 9.15991211 C40.5831366 8.11274521 40.60865601 7.06557831 40.63494873 5.98667908 C41.0625 3.375 41.0625 3.375 42.40264893 1.53297424 C44.95750607 -0.24938974 47.04147446 0.0536143 50.0625 0.375 C53.24315358 3.55565358 52.35777122 7.1612625 52.38476562 11.5 C52.38154297 12.69625 52.37832031 13.8925 52.375 15.125 C52.39111328 16.30578125 52.40722656 17.4865625 52.42382812 18.703125 C52.42724255 24.76713882 52.31628749 29.08228563 49.0625 34.375 C48.50023359 38.19707287 48.83675831 41.69777492 50.0625 45.375 C50.39639232 49.11928015 50.43249007 52.86772302 50.5 56.625 C50.54576172 57.64980469 50.59152344 58.67460937 50.63867188 59.73046875 C50.7646919 68.24503914 50.7646919 68.24503914 47.16015625 71.984375 C46.61351318 72.53013184 46.06687012 73.07588867 45.50366211 73.63818359 C42.70596768 77.00982482 42.63990909 81.15245057 42.0625 85.375 C41.70438518 87.54376886 41.33056092 89.70959921 40.95773315 91.87588501 C40.26533698 95.91413746 39.60439873 99.95745005 38.9375 104 C37.98875 109.73375 37.04 115.4675 36.0625 121.375 C23.8525 121.375 11.6425 121.375 -0.9375 121.375 C-1.05867188 118.04792969 -1.17984375 114.72085938 -1.3046875 111.29296875 C-1.47294409 106.71610811 -1.64265698 102.13930202 -1.8125 97.5625 C-1.85663025 96.36929138 -1.9007605 95.17608276 -1.94622803 93.94671631 C-2.51918827 78.52330887 -3.16657908 63.10664608 -3.92987061 47.69152832 C-4.52728694 35.56779822 -5.12287012 23.45312503 -5.1875 11.3125 C-5.19668457 10.3961377 -5.20586914 9.47977539 -5.21533203 8.53564453 C-5.1760284 0.66076958 -5.1760284 0.66076958 0 0 Z " fill="#5472FF" transform="translate(123.9375,78.625)"/>
<path d="M0 0 C2.17180728 1.59850609 2.9128036 2.4755166 3.35888672 5.15869141 C3.18684288 13.30984955 2.2302569 21.30369033 1.125 29.375 C0.9485976 30.7082513 0.7728138 32.04158459 0.59765625 33.375 C-0.78958485 43.79472208 -0.78958485 43.79472208 -1.49771118 47.85093689 C-2.91725208 56.21465051 -3.33812244 64.35736529 -3.4140625 72.83203125 C-3.43283286 74.20351753 -3.45241031 75.57499297 -3.4727478 76.94645691 C-3.52345688 80.50873337 -3.56340447 84.07104704 -3.60089111 87.63348389 C-3.64132118 91.28764544 -3.69213375 94.94166282 -3.7421875 98.59570312 C-3.83917587 105.73040987 -3.9191865 112.86501887 -4 120 C-17.2 120 -30.4 120 -44 120 C-44.4125 117.009375 -44.825 114.01875 -45.25 110.9375 C-46.5383195 101.74214713 -48.0631422 92.60070271 -49.72949219 83.46655273 C-49.89481445 82.54817627 -50.06013672 81.6297998 -50.23046875 80.68359375 C-50.37895264 79.87462646 -50.52743652 79.06565918 -50.68041992 78.23217773 C-51 76 -51 76 -51 72 C-46.75220611 67.63992962 -43.69044106 66.67664047 -37.62890625 66.51171875 C-35.27293989 66.54471548 -32.91721737 66.60399938 -30.5625 66.6875 C-29.35400391 66.71005859 -28.14550781 66.73261719 -26.90039062 66.75585938 C-23.93223739 66.81451853 -20.96699545 66.90094108 -18 67 C-17.9480246 66.27808975 -17.89604919 65.5561795 -17.84249878 64.81239319 C-17.26735837 57.34086478 -16.3726341 49.96737377 -15.2578125 42.55859375 C-15.00425491 40.86344383 -15.00425491 40.86344383 -14.74557495 39.13404846 C-14.38979255 36.76992954 -14.03170447 34.40615654 -13.67138672 32.04272461 C-13.12197112 28.41751451 -12.5902387 24.78996259 -12.05859375 21.16210938 C-11.70941844 18.85660623 -11.35919581 16.55126141 -11.0078125 14.24609375 C-10.85144318 13.16178574 -10.69507385 12.07747772 -10.53396606 10.96031189 C-10.37725433 9.95819168 -10.2205426 8.95607147 -10.05908203 7.92358398 C-9.92664093 7.04266586 -9.79419983 6.16174774 -9.65774536 5.25413513 C-8.13113973 0.02236065 -5.12438371 -0.64054796 0 0 Z " fill="#5472FF" transform="translate(275,80)"/>
<path d="M0 0 C2.25100229 0.00631485 4.49671848 -0.04061169 6.74707031 -0.09130859 C13.9591436 -0.1552138 19.86068021 -0.07446562 25.52685547 4.95019531 C28.65862606 8.8191175 29.36118937 12.53070719 30.14160156 17.40869141 C30.24738022 18.0570546 30.35315887 18.70541779 30.46214294 19.37342834 C30.79764804 21.43762978 31.12418125 23.50312809 31.45019531 25.56884766 C31.78173183 27.63064315 32.11509503 29.69213559 32.44895935 31.7535553 C32.75128581 33.62631791 33.04922228 35.49978765 33.34692383 37.37329102 C33.66334311 39.2796636 34.01672455 41.1817803 34.45776367 43.06323242 C35.03989116 46.54046071 34.88769531 50.10572871 34.88769531 53.63134766 C13.43769531 53.63134766 -8.01230469 53.63134766 -30.11230469 53.63134766 C-29.44979348 45.68121318 -28.63356581 38.20999591 -27.11230469 30.44384766 C-25.95881729 24.47998348 -24.90383744 18.60425543 -24.42553711 12.54345703 C-23.67828518 7.98190046 -20.91660205 5.27205414 -17.43798828 2.50097656 C-11.94417068 -0.58753138 -6.13946397 -0.03605166 0 0 Z " fill="#5372FF" transform="translate(193.1123046875,146.36865234375)"/>
<path d="M0 0 C1.23814453 -0.01224609 2.47628906 -0.02449219 3.75195312 -0.03710938 C17.34450438 -0.05847012 31.44044817 0.58871051 42.01171875 10.18359375 C48.65020656 17.54577415 51.00740073 23.2475629 50.8125 33.1875 C41.75173143 34.98982286 41.75173143 34.98982286 37.59375 33.26953125 C33.74169504 30.35600663 32.42821805 27.72335765 31.5625 23 C31.47484375 22.16082031 31.3871875 21.32164063 31.296875 20.45703125 C30.71732852 17.74157557 30.0514743 16.80367915 27.8125 15.1875 C22.2185195 14.51183114 22.2185195 14.51183114 17.375 16.875 C15.42793576 19.43554988 15.42793576 19.43554988 14.8125 24.1875 C5.2425 24.1875 -4.3275 24.1875 -14.1875 24.1875 C-15.1775 21.8775 -16.1675 19.5675 -17.1875 17.1875 C-19.17709408 14.77410109 -19.17709408 14.77410109 -23.0625 14.8125 C-25.93821688 14.91166265 -27.08543445 15.1273075 -29.625 16.625 C-31.29991664 19.37186329 -31.33664063 20.38928456 -31.4375 23.5 C-31.62950053 26.51293133 -31.82272549 27.78650077 -33.87890625 30.046875 C-35.30504198 31.19198583 -36.74016804 32.3259805 -38.18359375 33.44921875 C-43.64791069 38.18922078 -44.98322428 45.34214326 -46.1875 52.1875 C-46.8475 52.1875 -47.5075 52.1875 -48.1875 52.1875 C-51.98716446 42.57525361 -53.15691653 31.63023203 -49.625 21.75 C-46.11949041 14.27903806 -39.8749206 7.07807297 -32.13671875 3.95703125 C-31.06035156 3.64121094 -29.98398438 3.32539062 -28.875 3 C-27.80636719 2.67644531 -26.73773438 2.35289063 -25.63671875 2.01953125 C-17.11599627 -0.03586387 -8.72733006 0.00447326 0 0 Z " fill="#5674FF" transform="translate(147.1875,61.8125)"/>
<path d="M0 0 C4.71855263 2.89653726 8.83987374 6.38560596 10.3046875 11.890625 C11.17670386 18.36515353 11.69595914 24.82511682 7.9296875 30.453125 C3.35804473 35.466837 -2.97336167 39.03529926 -9.8203125 39.453125 C-15.83877123 38.57947777 -20.503669 36.56834797 -24.5703125 31.953125 C-29.03202238 25.52301371 -29.64402434 19.58018413 -28.6953125 11.890625 C-26.79262834 6.4923118 -23.11534171 2.50795687 -18.12890625 -0.25390625 C-12.19061206 -2.3413644 -5.83668423 -2.40234539 0 0 Z " fill="#5472FF" transform="translate(204.6953125,99.109375)"/>
<path d="M0 0 C3.81993724 1.66650763 3.81993724 1.66650763 5.48828125 3.26171875 C7.29541334 9.5877445 5.82625274 15.98590576 4.98828125 22.38671875 C4.85164063 23.67449219 4.715 24.96226563 4.57421875 26.2890625 C3.36888788 35.42470517 3.36888788 35.42470517 0.89038086 37.78051758 C-3.69671783 39.82348048 -8.7550643 40.16272643 -13.51953125 38.60546875 C-19.97709686 35.75726491 -24.82566449 30.82492825 -27.51171875 24.26171875 C-28.46457506 17.80235597 -28.04840002 12.37621155 -24.109375 7.0546875 C-17.18983471 -0.71076236 -10.28627843 -3.02349397 0 0 Z " fill="#5472FF" transform="translate(253.51171875,98.73828125)"/>
<path d="M0 0 C2.89909735 1.18189892 4.78082515 2.78082515 7 5 C7.59250627 15.29915315 6.64600309 25.72162938 6 36 C-0.99918519 39.77011325 -5.43089055 40.91250611 -13.3125 39.62109375 C-15.95720825 38.79462242 -17.20679066 38.13172335 -19 36 C-20.18785366 31.02909064 -20.07061114 26.07951898 -20 21 C-20.00821218 19.41143634 -20.01999376 17.82288753 -20.03515625 16.234375 C-20.06553135 12.15525165 -20.04493346 8.07895936 -20 4 C-13.23976504 -0.30740634 -8.03633706 -1.06257088 0 0 Z " fill="#5573FF" transform="translate(154,98)"/>
<path d="M0 0 C4.20422649 1.85768147 5.9951689 3.91105069 8 8 C8.74780369 13.76010951 9.4714046 20.69905973 6.125 25.75 C2.12486614 29.98543585 2.12486614 29.98543585 -0.27734375 30.265625 C-1.15519531 30.26046875 -2.03304687 30.2553125 -2.9375 30.25 C-3.81277344 30.25515625 -4.68804687 30.2603125 -5.58984375 30.265625 C-8 30 -8 30 -11 28 C-11 32.95 -11 37.9 -11 43 C-13.64 43 -16.28 43 -19 43 C-19 29.14 -19 15.28 -19 1 C-16.69 1 -14.38 1 -12 1 C-12 1.99 -12 2.98 -12 4 C-11.13375 3.34 -10.2675 2.68 -9.375 2 C-5.70376566 -0.17554627 -4.16621314 -0.62049983 0 0 Z " fill="#080808" transform="translate(233,226)"/>
<path d="M0 0 C13.95554878 -0.41045732 25.8180652 -0.54605915 37 9 C42.76752111 15.0426891 45.85500639 20.43270118 46.125 28.9375 C46.08375 29.948125 46.0425 30.95875 46 32 C36.93923143 33.80232286 36.93923143 33.80232286 32.78125 32.08203125 C28.92919504 29.16850663 27.61571805 26.53585765 26.75 21.8125 C26.66234375 20.97332031 26.5746875 20.13414063 26.484375 19.26953125 C25.90482852 16.55407557 25.2389743 15.61617915 23 14 C17.4060195 13.32433114 17.4060195 13.32433114 12.5625 15.6875 C10.61543576 18.24804988 10.61543576 18.24804988 10 23 C5.71 23 1.42 23 -3 23 C-1.89941304 17.4970652 -0.93161474 16.65078512 3 13 C5.22943223 10.53993685 5.95951782 9.59373865 6.1875 6.25 C6.125625 5.5075 6.06375 4.765 6 4 C4.02 3.01 2.04 2.02 0 1 C0 0.67 0 0.34 0 0 Z " fill="#5573FF" transform="translate(152,63)"/>
<path d="M0 0 C4.05578145 1.36678349 7.08466561 2.79007523 9.69921875 6.24609375 C12.08818086 11.30380632 11.85039213 16.54945518 11 22 C9.05622642 25.60222259 6.66749624 28.16625188 3 30 C-8.36723154 31.19117696 -8.36723154 31.19117696 -12.625 27.8125 C-16.86570512 22.79061236 -17.403047 18.81429232 -17.25 12.3671875 C-16.76810723 7.80426536 -14.78951402 5.69323182 -11.4375 2.75 C-7.38253408 -0.16125758 -5.03399748 -0.40596754 0 0 Z " fill="#0A0A0A" transform="translate(263,226)"/>
<path d="M0 0 C7.26 0 14.52 0 22 0 C22 2.31 22 4.62 22 7 C17.38 7 12.76 7 8 7 C8 9.64 8 12.28 8 15 C12.29 15 16.58 15 21 15 C21 17.31 21 19.62 21 22 C16.71 22 12.42 22 8 22 C8 24.97 8 27.94 8 31 C12.62 31 17.24 31 22 31 C22 33.31 22 35.62 22 38 C14.74 38 7.48 38 0 38 C0 25.46 0 12.92 0 0 Z " fill="#101010" transform="translate(22,218)"/>
<path d="M0 0 C4.62229488 1.72203143 7.55449419 3.67333588 10 8 C10 10.97 10 13.94 10 17 C3.73 17 -2.54 17 -9 17 C-8.01 18.98 -7.02 20.96 -6 23 C-1.38 23 3.24 23 8 23 C8 24.98 8 26.96 8 29 C4.56367253 30.14544249 1.74568045 30.2397802 -1.875 30.3125 C-3.08929688 30.34988281 -4.30359375 30.38726562 -5.5546875 30.42578125 C-9.60370741 29.92539217 -11.13340094 28.8356088 -14 26 C-17.47720287 20.96405101 -17.86008963 15.93365207 -17 10 C-13.48498567 2.69958561 -8.1591643 -1.01989554 0 0 Z " fill="#0C0C0C" transform="translate(342,226)"/>
<path d="M0 0 C4.62229488 1.72203143 7.55449419 3.67333588 10 8 C10 10.97 10 13.94 10 17 C3.73 17 -2.54 17 -9 17 C-8.01 18.98 -7.02 20.96 -6 23 C-1.38 23 3.24 23 8 23 C8 24.98 8 26.96 8 29 C4.56367253 30.14544249 1.74568045 30.2397802 -1.875 30.3125 C-3.08929688 30.34988281 -4.30359375 30.38726562 -5.5546875 30.42578125 C-9.60370741 29.92539217 -11.13340094 28.8356088 -14 26 C-17.47720287 20.96405101 -17.86008963 15.93365207 -17 10 C-13.48498567 2.69958561 -8.1591643 -1.01989554 0 0 Z " fill="#0C0C0C" transform="translate(96,226)"/>
<path d="M0 0 C0.99 0.495 1.98 0.99 3 1.5 C2.34 3.48 1.68 5.46 1 7.5 C0.505 7.335 0.01 7.17 -0.5 7 C-4.03444089 6.29311182 -7.39690701 6.43994845 -11 6.5 C-11.33 8.15 -11.66 9.8 -12 11.5 C-11.18015625 11.94730469 -10.3603125 12.39460937 -9.515625 12.85546875 C-8.43796875 13.46003906 -7.3603125 14.06460938 -6.25 14.6875 C-5.18265625 15.27917969 -4.1153125 15.87085938 -3.015625 16.48046875 C0.10562447 18.57073556 1.99729528 20.33067118 4 23.5 C4.58650441 27.84746396 3.74375248 31.50833002 1.125 35 C-2.68068958 37.68636912 -5.90450718 37.63529056 -10.4375 37.625 C-11.57058594 37.62757813 -12.70367187 37.63015625 -13.87109375 37.6328125 C-16.45221183 37.52325193 -18.54944405 37.25864877 -21 36.5 C-21 33.86 -21 31.22 -21 28.5 C-19.989375 28.83 -18.97875 29.16 -17.9375 29.5 C-13.67518762 30.72151635 -9.09089061 31.54544531 -5 29.5 C-5.08294273 27.09125825 -5.08294273 27.09125825 -6 24.5 C-8.40955497 22.73493026 -8.40955497 22.73493026 -11.375 21.4375 C-15.22717327 19.60288978 -17.89179808 18.29755577 -20 14.5 C-20.66383347 11.09785344 -20.60167963 7.9113579 -20 4.5 C-14.91143745 -2.23890716 -7.54726278 -3.25207258 0 0 Z " fill="#0A0A0A" transform="translate(204,218.5)"/>
<path d="M0 0 C2.60847629 1.49745861 4.87028902 2.87028902 7 5 C7.08737645 6.85369611 7.10698153 8.71067541 7.09765625 10.56640625 C7.09443359 11.69111328 7.09121094 12.81582031 7.08789062 13.97460938 C7.07951172 15.15861328 7.07113281 16.34261719 7.0625 17.5625 C7.05798828 18.75037109 7.05347656 19.93824219 7.04882812 21.16210938 C7.03699675 24.10812226 7.02051287 27.05403681 7 30 C4.36 30 1.72 30 -1 30 C-1.33 22.74 -1.66 15.48 -2 8 C-4.31 8 -6.62 8 -9 8 C-10.17469444 10.34938888 -10.20034889 11.95073205 -10.31640625 14.5703125 C-10.35830078 15.46621094 -10.40019531 16.36210937 -10.44335938 17.28515625 C-10.48267578 18.22230469 -10.52199219 19.15945312 -10.5625 20.125 C-10.60568359 21.06988281 -10.64886719 22.01476562 -10.69335938 22.98828125 C-10.79959072 25.32537092 -10.90163176 27.6625683 -11 30 C-13.64 30 -16.28 30 -19 30 C-19 20.43 -19 10.86 -19 1 C-17.02 1 -15.04 1 -13 1 C-13 1.99 -13 2.98 -13 4 C-12.154375 3.34 -11.30875 2.68 -10.4375 2 C-6.44287215 -0.32414711 -4.54547679 -0.64935383 0 0 Z " fill="#0E0E0E" transform="translate(132,226)"/>
<path d="M0 0 C2.64 0 5.28 0 8 0 C8.60773974 1.4777022 9.21094504 2.95726927 9.8125 4.4375 C10.14894531 5.26121094 10.48539063 6.08492187 10.83203125 6.93359375 C12.34669644 10.91022308 13.65434806 14.96304418 15 19 C16.98 12.73 18.96 6.46 21 0 C23.97 0 26.94 0 30 0 C28.59561494 3.80913316 27.18973773 7.61771184 25.7824707 11.42578125 C25.30386896 12.72152772 24.82567643 14.01742541 24.34790039 15.31347656 C23.66139408 17.17552692 22.97329748 19.03699072 22.28515625 20.8984375 C21.66459351 22.57945557 21.66459351 22.57945557 21.03149414 24.29443359 C20 27 20 27 19 29 C16.36 29 13.72 29 11 29 C7.92981779 22.58793803 5.19183617 16.08772043 2.6875 9.4375 C2.42114746 8.73496094 2.15479492 8.03242188 1.88037109 7.30859375 C0 2.25146965 0 2.25146965 0 0 Z " fill="#090909" transform="translate(47,227)"/>
<path d="M0 0 C4.39309313 1.58003686 6.82418312 3.55197024 10 7 C9.43454468 7.60303955 9.43454468 7.60303955 8.85766602 8.21826172 C0.13315989 17.50721285 0.13315989 17.50721285 -8.4375 26.9375 C-14.82024634 34.08471976 -21.42981444 41.0255953 -28 48 C-28.66 47.67 -29.32 47.34 -30 47 C-28.40891415 42.36876407 -25.92552803 38.6308173 -23.203125 34.609375 C-22.73187195 33.90532532 -22.2606189 33.20127563 -21.77508545 32.47589111 C-20.2710518 30.23098784 -18.76067005 27.99044138 -17.25 25.75 C-16.24957227 24.25940157 -15.24956808 22.76851878 -14.25 21.27734375 C-12.34409137 18.43529904 -10.43591961 15.59480006 -8.52539062 12.75585938 C-5.67049957 8.51261996 -2.83060699 4.25947569 0 0 Z " fill="#5775FF" transform="translate(268,14)"/>
<path d="M0 0 C3.63 0 7.26 0 11 0 C11.18326428 8.32657269 10.45867936 16.41347198 9.5625 24.6875 C8.48276073 34.78745349 7.60548398 44.86197845 7 55 C5.68 55 4.36 55 3 55 C2.57016071 48.13167027 2.14321507 41.263165 1.71826172 34.39453125 C1.57341752 32.05887802 1.4279158 29.72326547 1.28173828 27.38769531 C1.07150343 24.0267981 0.86364892 20.66576076 0.65625 17.3046875 C0.59062866 16.26384003 0.52500732 15.22299255 0.45739746 14.15060425 C0.16799621 9.42590077 -0.08470592 4.73647249 0 0 Z " fill="#5775FF" transform="translate(186,0)"/>
<path d="M0 0 C0.66 0 1.32 0 2 0 C3.33764648 1.74975586 3.33764648 1.74975586 4.87109375 4.21484375 C5.44069824 5.12153809 6.01030273 6.02823242 6.59716797 6.96240234 C7.20447754 7.94418457 7.81178711 8.9259668 8.4375 9.9375 C9.69862146 11.94959324 10.96034803 13.96130733 12.22265625 15.97265625 C12.85445801 16.98344238 13.48625977 17.99422852 14.13720703 19.03564453 C16.84304586 23.34158098 19.60399553 27.61081177 22.375 31.875 C22.84478271 32.59937256 23.31456543 33.32374512 23.79858398 34.07006836 C24.86489212 35.71391794 25.93230216 37.35705271 27 39 C26.34 39.99 25.68 40.98 25 42 C24.34 42 23.68 42 23 42 C21.66015625 40.63671875 21.66015625 40.63671875 20.0625 38.6875 C17.03120713 35.11196665 13.837603 31.79169374 10.5 28.5 C6.11592031 24.17018241 1.97531081 19.70708444 -2 15 C-3.14537575 13.66627357 -4.29118756 12.33292145 -5.4375 11 C-6.283125 10.01 -7.12875 9.02 -8 8 C-7.50628906 7.59007812 -7.01257813 7.18015625 -6.50390625 6.7578125 C-5.86324219 6.21898437 -5.22257812 5.68015625 -4.5625 5.125 C-3.92441406 4.59132813 -3.28632812 4.05765625 -2.62890625 3.5078125 C-0.89194996 2.0777243 -0.89194996 2.0777243 0 0 Z " fill="#5674FF" transform="translate(110,10)"/>
<path d="M0 0 C1.98 0 3.96 0 6 0 C6 1.98 6 3.96 6 6 C8.64 6 11.28 6 14 6 C14 7.98 14 9.96 14 12 C11.36 12 8.72 12 6 12 C6.33 17.28 6.66 22.56 7 28 C9.31 28.33 11.62 28.66 14 29 C14.042721 30.66611905 14.04063832 32.33382885 14 34 C12.27026886 35.72973114 9.97483037 35.17208117 7.625 35.1875 C6.64789063 35.20167969 5.67078125 35.21585937 4.6640625 35.23046875 C2 35 2 35 -1 33 C-1.92188461 30.23434618 -2.11785222 28.61716298 -2.09765625 25.76953125 C-2.09443359 24.96708984 -2.09121094 24.16464844 -2.08789062 23.33789062 C-2.07951172 22.50451172 -2.07113281 21.67113281 -2.0625 20.8125 C-2.05798828 19.96751953 -2.05347656 19.12253906 -2.04882812 18.25195312 C-2.03705403 16.16793845 -2.0191189 14.08396023 -2 12 C-3.32 12 -4.64 12 -6 12 C-6 10.68 -6 9.36 -6 8 C-4.67732273 6.98594743 -3.34275169 5.98731742 -2 5 C-0.73152315 2.41501488 -0.73152315 2.41501488 0 0 Z " fill="#0A0A0A" transform="translate(307,221)"/>
<path d="M0 0 C1.65 0 3.3 0 5 0 C5 1.98 5 3.96 5 6 C7.97 6 10.94 6 14 6 C14 7.98 14 9.96 14 12 C11.36 12 8.72 12 6 12 C6.33 17.28 6.66 22.56 7 28 C9.31 28.33 11.62 28.66 14 29 C14.042721 30.66611905 14.04063832 32.33382885 14 34 C12.27415266 35.72584734 10.03790633 35.2533507 7.6875 35.3125 C6.23923828 35.36857422 6.23923828 35.36857422 4.76171875 35.42578125 C2 35 2 35 -0.33984375 33.58984375 C-2.89004418 29.61153108 -2.42723865 25.86502183 -2.25 21.25 C-2.23195313 20.36183594 -2.21390625 19.47367188 -2.1953125 18.55859375 C-2.14827374 16.37129152 -2.08257009 14.18620184 -2 12 C-3.32 12 -4.64 12 -6 12 C-5.6875 9.625 -5.6875 9.625 -5 7 C-4.01 6.34 -3.02 5.68 -2 5 C-0.79549696 2.44816596 -0.79549696 2.44816596 0 0 Z " fill="#0B0B0B" transform="translate(284,221)"/>
<path d="M0 0 C1.65 0 3.3 0 5 0 C5 1.98 5 3.96 5 6 C7.97 6 10.94 6 14 6 C14 7.98 14 9.96 14 12 C11.03 12 8.06 12 5 12 C5.14024219 14.47960136 5.2869185 16.95852402 5.4375 19.4375 C5.47681641 20.14455078 5.51613281 20.85160156 5.55664062 21.58007812 C5.47624438 25.08690419 5.47624438 25.08690419 7 28 C9.32817964 28.36760731 11.6618385 28.70241581 14 29 C14.042721 30.66611905 14.04063832 32.33382885 14 34 C12.19350099 35.80649901 9.56248958 35.25696966 7.125 35.3125 C6.05507812 35.34988281 4.98515625 35.38726562 3.8828125 35.42578125 C1 35 1 35 -0.87109375 33.58984375 C-2.63663308 29.53948883 -2.31314319 25.61207372 -2.1875 21.25 C-2.16719727 19.91775391 -2.16719727 19.91775391 -2.14648438 18.55859375 C-2.11121309 16.37177422 -2.06192752 14.18620034 -2 12 C-3.32 12 -4.64 12 -6 12 C-5.48659616 8.20081162 -4.7920132 6.56865214 -2 4 C-0.82425289 1.90010348 -0.82425289 1.90010348 0 0 Z " fill="#080808" transform="translate(151,221)"/>
<path d="M0 0 C0 2.64 0 5.28 0 8 C-1.11375 8.12375 -2.2275 8.2475 -3.375 8.375 C-7.03103677 8.6465813 -7.03103677 8.6465813 -9 11 C-9.36894582 13.03060659 -9.36894582 13.03060659 -9.4140625 15.3515625 C-9.47207031 16.62773437 -9.47207031 16.62773437 -9.53125 17.9296875 C-9.57765625 19.26386719 -9.57765625 19.26386719 -9.625 20.625 C-9.68300781 21.97078125 -9.68300781 21.97078125 -9.7421875 23.34375 C-9.83659357 25.5622927 -9.92216748 27.78082403 -10 30 C-12.64 30 -15.28 30 -18 30 C-18 20.43 -18 10.86 -18 1 C-16.02 1 -14.04 1 -12 1 C-12 2.32 -12 3.64 -12 5 C-11.55269531 4.6390625 -11.10539062 4.278125 -10.64453125 3.90625 C-4.6397188 -0.7029877 -4.6397188 -0.7029877 0 0 Z " fill="#0D0D0D" transform="translate(377,226)"/>
<path d="M0 0 C2.98096832 0.23847747 4.6142558 0.70492665 7.125 2.25 C7.785 1.59 8.445 0.93 9.125 0.25 C12.625 0 12.625 0 16.125 0.25 C18.125 2.25 18.125 2.25 18.125 5.4375 C16.57647893 11.34123657 13.14245743 14.90502838 8.125 18.25 C5.0816461 18.06584801 3.52199922 17.57041275 1.140625 15.6484375 C-2.72905876 11.21371142 -4.99502376 8.25118795 -4.875 2.25 C-2.875 0.25 -2.875 0.25 0 0 Z " fill="#EEF1FF" transform="translate(140.875,64.75)"/>
<path d="M0 0 C3 0.4375 3 0.4375 4.6640625 1.62109375 C6.50020807 4.11760747 6.39977358 5.86557621 6.375 8.9375 C6.38273437 9.8965625 6.39046875 10.855625 6.3984375 11.84375 C6 14.4375 6 14.4375 4.6640625 16.25 C2.01639846 18.13941284 0.14306047 17.96134341 -3 17.4375 C-5.63010561 14.63205402 -6.20757578 12.10716486 -6.375 8.375 C-6 4.4375 -6 4.4375 -4.875 1.9375 C-3 0.4375 -3 0.4375 0 0 Z " fill="#F4F4F4" transform="translate(260,232.5625)"/>
<path d="M0 0 C3.5 -0.375 3.5 -0.375 7 0 C9.22264871 3.33397306 9.29675463 4.59514891 9.3125 8.5 C9.32925781 9.4590625 9.34601563 10.418125 9.36328125 11.40625 C9 14 9 14 7.63671875 15.8203125 C5.29908117 17.50519687 3.81298705 17.42194806 1 17 C-0.63671875 15.8203125 -0.63671875 15.8203125 -2 14 C-2.36328125 11.40625 -2.36328125 11.40625 -2.3125 8.5 C-2.30669922 7.06140625 -2.30669922 7.06140625 -2.30078125 5.59375 C-2 3 -2 3 0 0 Z " fill="#F2F2F2" transform="translate(224,233)"/>
<path d="M0 0 C0.99 0 1.98 0 3 0 C4.59955903 3.62328107 6.18393878 7.25278356 7.75463867 10.88867188 C8.55439725 12.7313311 9.36601095 14.5688301 10.17773438 16.40625 C10.67724609 17.56640625 11.17675781 18.7265625 11.69140625 19.921875 C12.15748291 20.99018555 12.62355957 22.05849609 13.10375977 23.15917969 C14.01350717 26.04281378 14.09825853 27.23833135 13 30 C8.65575031 26.20144296 7.03852356 20.75443798 4.8125 15.5625 C4.34908203 14.51255859 3.88566406 13.46261719 3.40820312 12.38085938 C2.97056641 11.36958984 2.53292969 10.35832031 2.08203125 9.31640625 C1.68218018 8.39287354 1.2823291 7.46934082 0.87036133 6.51782227 C0 4 0 4 0 0 Z " fill="#5F7BFF" transform="translate(147,10)"/>
<path d="M0 0 C3.95820859 0.56545837 6.6659053 1.80902348 10 4 C10 3.34 10 2.68 10 2 C13 0 13 0 16 0 C15.67566492 5.35152885 12.50295176 8.28280043 9 12 C7.87105124 11.06725891 6.74699124 10.12859878 5.625 9.1875 C4.99851563 8.66542969 4.37203125 8.14335938 3.7265625 7.60546875 C2 6 2 6 0 3 C0 2.01 0 1.02 0 0 Z " fill="#5876FF" transform="translate(139,68)"/>
<path d="M0 0 C0.66 0 1.32 0 2 0 C1.43052538 4.96118567 -0.84187303 8.64528662 -3.3125 12.875 C-3.70373047 13.55691406 -4.09496094 14.23882812 -4.49804688 14.94140625 C-5.27651282 16.29694397 -6.0578783 17.6508211 -6.84228516 19.00292969 C-8.57604792 21.99368873 -10.28698292 24.99732018 -12 28 C-12.99 28 -13.98 28 -15 28 C-14.41392179 24.00352188 -13.16462657 21.18875738 -11.09375 17.734375 C-10.51496094 16.76242188 -9.93617188 15.79046875 -9.33984375 14.7890625 C-8.73269531 13.78617188 -8.12554687 12.78328125 -7.5 11.75 C-6.89285156 10.73164063 -6.28570312 9.71328125 -5.66015625 8.6640625 C-1.17924626 1.17924626 -1.17924626 1.17924626 0 0 Z " fill="#5B78FF" transform="translate(236,12)"/>
<path d="M0 0 C0.78375 0.33 1.5675 0.66 2.375 1 C9.83782176 3.05870945 16.67256813 2.17109093 24 0 C23.6484375 1.921875 23.6484375 1.921875 23 4 C17.82931032 6.72141562 11.7008856 6.70944354 6 6 C3.40733605 4.949054 2.09880544 3.92863202 0 2 C0 1.34 0 0.68 0 0 Z " fill="#6581FF" transform="translate(135,138)"/>
<path d="M0 0 C-1.49875777 4.50660958 -5.10563807 6.37106853 -8.9375 8.75 C-9.88786133 9.36681641 -9.88786133 9.36681641 -10.85742188 9.99609375 C-15.60279537 13 -15.60279537 13 -19 13 C-17.50124223 8.49339042 -13.89436193 6.62893147 -10.0625 4.25 C-9.11213867 3.63318359 -9.11213867 3.63318359 -8.14257812 3.00390625 C-3.39720463 0 -3.39720463 0 0 0 Z " fill="#5775FF" transform="translate(281,56)"/>
<path d="M0 0 C9.57 0 19.14 0 29 0 C29 0.33 29 0.66 29 1 C26.69 1.33 24.38 1.66 22 2 C22 2.33 22 2.66 22 3 C15.71134652 5.23596568 12.38699558 4.92814961 6 3 C6 2.67 6 2.34 6 2 C3.03 1.505 3.03 1.505 0 1 C0 0.67 0 0.34 0 0 Z " fill="#627EFF" transform="translate(133,62)"/>
<path d="M0 0 C5.47932789 1.54545146 10.11429181 4.15543212 15 7 C14.67 7.99 14.34 8.98 14 10 C8.91781973 8.60240043 4.03328438 6.44978893 0 3 C0 2.01 0 1.02 0 0 Z " fill="#6984FF" transform="translate(97,48)"/>
<path d="M0 0 C3.0625 0.1875 3.0625 0.1875 5.0625 2.1875 C5.0625 3.5075 5.0625 4.8275 5.0625 6.1875 C1.7625 6.1875 -1.5375 6.1875 -4.9375 6.1875 C-3.87127483 0.24710265 -3.87127483 0.24710265 0 0 Z " fill="#EEEEEE" transform="translate(338.9375,231.8125)"/>
<path d="M0 0 C3.0625 0.1875 3.0625 0.1875 5.0625 2.1875 C5.0625 3.5075 5.0625 4.8275 5.0625 6.1875 C1.7625 6.1875 -1.5375 6.1875 -4.9375 6.1875 C-3.87127483 0.24710265 -3.87127483 0.24710265 0 0 Z " fill="#EEEEEE" transform="translate(92.9375,231.8125)"/>
<path d="M0 0 C0.66 0 1.32 0 2 0 C2.66 1.32 3.32 2.64 4 4 C3.29875 4.061875 2.5975 4.12375 1.875 4.1875 C-2.0332733 5.29201202 -4.00357248 7.28230992 -7 10 C-7 9.01 -7 8.02 -7 7 C-5.03814584 5.28859531 -3.03697617 3.62126675 -1 2 C-0.67 1.34 -0.34 0.68 0 0 Z " fill="#627FFF" transform="translate(110,10)"/>
<path d="M0 0 C5.75 1.875 5.75 1.875 8 3 C8 3.99 8 4.98 8 6 C4.62537285 5.45276317 2.91765 4.9451 0 3 C0 2.01 0 1.02 0 0 Z " fill="#5B78FF" transform="translate(97,48)"/>
<path d="M0 0 C0.66 0.99 1.32 1.98 2 3 C1.125 6.1875 1.125 6.1875 0 9 C-0.99 9 -1.98 9 -3 9 C-2.44271087 5.65626525 -1.64826111 2.96687001 0 0 Z " fill="#6581FF" transform="translate(224,31)"/>
<path d="M0 0 C1.5625 1.25 1.5625 1.25 3 3 C2.6875 5.1875 2.6875 5.1875 2 7 C0.4375 5.75 0.4375 5.75 -1 4 C-0.6875 1.8125 -0.6875 1.8125 0 0 Z " fill="#5876FF" transform="translate(158,33)"/>
<path d="M0 0 C0.66 0.33 1.32 0.66 2 1 C2 2.98 2 4.96 2 7 C1.34 7 0.68 7 0 7 C-0.38133299 5.0085944 -0.71325582 3.00720923 -1 1 C-0.67 0.67 -0.34 0.34 0 0 Z " fill="#6782FF" transform="translate(99,107)"/>
</svg>
